<?xml version="1.0" encoding="UTF-8" standalone="no"?>
<!DOCTYPE svg  PUBLIC '-//W3C//DTD SVG 1.1//EN'  'http://www.w3.org/Graphics/SVG/1.1/DTD/svg11.dtd'>
<svg id="Layer_1" style="enable-background:new 0 0 512 512" xmlns="http://www.w3.org/2000/svg" xml:space="preserve" height="512px" viewBox="0 0 512 512" width="512px" version="1.1" y="0px" x="0px" xmlns:xlink="http://www.w3.org/1999/xlink">
<g id="_x23_000000ff">
	<path d="m174.3 0h11.4c24 1 48 6.3 69.8 16.6 34.2 15.7 63.1 42.5 81.5 75.4 16.6 29.4 24.5 63.5 22.7 97.1-1.6 34-13.2 67.5-33 95.2 12.3 12.5 24.8 24.9 37.2 37.3 3.5-3.5 7-6.9 10.4-10.5 46 45.6 91.7 91.7 137.6 137.4v0.2c-3.9 3.9-8.3 7.4-11.2 12.1-13.3 13.4-26.7 26.7-40 40-4.8 2.9-8.2 7.5-12.3 11.3-45.8-45.8-91.7-91.6-137.5-137.5l10.5-10.5c-12.5-12.4-24.7-25-37.4-37.2-26.3 18.8-57.8 30.2-90 32.7-32.8 2.6-66.3-3.9-95.6-19-31.4-15.9-57.9-41.3-75.2-71.9-15-26.3-23-56.5-23.3-86.8v-3.6c0.3-24.4 5.4-48.7 15.3-71 15.4-34.9 42.2-64.6 75.3-83.5 25.5-14.8 54.5-22.7 83.8-23.8m-8.6 60.9c-36.3 4-69.9 25.9-88.6 57.3-14.8 24.4-20.4 54.2-15.4 82.3 4.5 27.1 18.9 52.3 39.6 70.2 20 17.5 46 28 72.6 29.2 26.5 1.4 53.4-6.3 75.1-21.7 22.8-16 39.7-40.1 46.9-67 6.2-23.2 5.3-48.4-2.8-71-9.5-27-29.1-50.4-54-64.4-22-12.8-48.2-18-73.4-14.9z"/>
</g>
</svg>
